<svg width="62" height="62" viewBox="0 0 62 62" fill="none" xmlns="http://www.w3.org/2000/svg">
<path fill-rule="evenodd" clip-rule="evenodd" d="M18.0833 10.3333C13.8031 10.3333 10.3333 13.8031 10.3333 18.0833V43.9166C10.3333 48.197 13.8031 51.6666 18.0833 51.6666H43.9167C48.197 51.6666 51.6667 48.197 51.6667 43.9166V28.4166C51.6667 26.9899 52.8232 25.8333 54.25 25.8333C55.6768 25.8333 56.8333 26.9899 56.8333 28.4166V43.9166C56.8333 51.0502 51.0503 56.8333 43.9167 56.8333H18.0833C10.9497 56.8333 5.16666 51.0502 5.16666 43.9166V18.0833C5.16666 10.9496 10.9497 5.16663 18.0833 5.16663H33.5833C35.0101 5.16663 36.1667 6.32324 36.1667 7.74996C36.1667 9.17668 35.0101 10.3333 33.5833 10.3333H18.0833Z" fill="white"/>
<path fill-rule="evenodd" clip-rule="evenodd" d="M44.4736 7.28723C45.8314 5.92943 47.6731 5.16663 49.5933 5.16663C51.5135 5.16663 53.3549 5.92943 54.7127 7.28723C56.0705 8.64503 56.8333 10.4866 56.8333 12.4068C56.8333 14.327 56.0705 16.1686 54.7127 17.5264L52.6897 19.5495C51.6809 20.5584 50.0451 20.5584 49.0363 19.5495L42.4504 12.9637C41.4416 11.9549 41.4416 10.3192 42.4504 9.31034L44.4736 7.28723ZM38.797 16.6171C37.7882 15.6083 36.1525 15.6083 35.1437 16.6171L23.6186 28.1423C23.2875 28.4732 23.0527 28.8881 22.9391 29.3422L20.7439 38.1235C20.5238 39.0036 20.7817 39.9349 21.4233 40.5766C22.065 41.2183 22.9963 41.4762 23.8766 41.2561L32.6577 39.061C33.1119 38.9473 33.5268 38.7125 33.8577 38.3813L45.383 26.8563C46.3918 25.8475 46.3918 24.2118 45.383 23.2029L38.797 16.6171Z" fill="white"/>
</svg>
